<svg width="24" height="24" viewBox="0 0 24 24" fill="none" xmlns="http://www.w3.org/2000/svg">
<path d="M16.2857 3.77332C14.5157 3.77332 12.966 4.53446 12 5.82103C11.034 4.53446 9.48428 3.77332 7.71428 3.77332C6.30533 3.7749 4.95455 4.33531 3.95827 5.33159C2.96199 6.32787 2.40159 7.67865 2.4 9.0876C2.4 15.0876 11.2963 19.9442 11.6751 20.1447C11.775 20.1985 11.8866 20.2266 12 20.2266C12.1134 20.2266 12.225 20.1985 12.3249 20.1447C12.7037 19.9442 21.6 15.0876 21.6 9.0876C21.5984 7.67865 21.038 6.32787 20.0417 5.33159C19.0454 4.33531 17.6947 3.7749 16.2857 3.77332Z" fill="black"/>
</svg>
