<svg width="24" height="24" viewBox="0 0 24 24" fill="none" xmlns="http://www.w3.org/2000/svg">
<path d="M12 13.6667C13.8409 13.6667 15.3333 12.1743 15.3333 10.3333C15.3333 8.49238 13.8409 7 12 7C10.1591 7 8.66666 8.49238 8.66666 10.3333C8.66666 12.1743 10.1591 13.6667 12 13.6667Z" stroke="black" stroke-width="1.2" stroke-miterlimit="10"/>
<path d="M12 21.1667C17.0626 21.1667 21.1667 17.0626 21.1667 12C21.1667 6.93743 17.0626 2.83337 12 2.83337C6.93743 2.83337 2.83333 6.93743 2.83333 12C2.83333 17.0626 6.93743 21.1667 12 21.1667Z" stroke="black" stroke-width="1.2" stroke-miterlimit="10"/>
<path d="M5.33333 18.2498C6.00924 17.1097 6.98112 16.1629 8.15134 15.5047C9.32154 14.8465 10.6489 14.5 12 14.5C13.3512 14.5 14.6785 14.8465 15.8487 15.5048C17.0189 16.163 17.9908 17.1098 18.6667 18.25" stroke="black" stroke-width="1.2" stroke-linecap="round" stroke-linejoin="round"/>
</svg>
