<svg width="24" height="24" viewBox="0 0 24 24" fill="none" xmlns="http://www.w3.org/2000/svg">
<g clip-path="url(#clip0_10_4478)">
<path fill-rule="evenodd" clip-rule="evenodd" d="M13.3582 6.28769C15.4085 8.33794 15.4085 11.6621 13.3582 13.7123C11.308 15.7626 7.98386 15.7626 5.93361 13.7123C3.88335 11.6621 3.88335 8.33794 5.93361 6.28769C7.98386 4.23744 11.308 4.23744 13.3582 6.28769ZM14.9201 14.2135C17.0427 11.5632 16.8757 7.68381 14.4189 5.22703C11.7828 2.59099 7.50899 2.59099 4.87295 5.22703C2.23691 7.86307 2.23691 12.1369 4.87295 14.773C7.32973 17.2298 11.2092 17.3968 13.8594 15.2742L18.6071 20.0219L19.6678 18.9612L14.9201 14.2135Z" fill="black"/>
</g>
<defs>
<clipPath id="clip0_10_4478">
<rect width="24" height="24" fill="white"/>
</clipPath>
</defs>
</svg>
