<svg width="24" height="24" viewBox="0 0 24 24" fill="none" xmlns="http://www.w3.org/2000/svg">
<path d="M7.42126 10.9375C7.18996 10.5213 6.82701 10.1937 6.38937 10.0062C5.95174 9.81856 5.46421 9.7816 5.0033 9.90107C4.54239 10.0205 4.1342 10.2897 3.8428 10.6662C3.5514 11.0428 3.3933 11.5055 3.3933 11.9816C3.3933 12.4578 3.5514 12.9204 3.8428 13.297C4.1342 13.6735 4.54239 13.9427 5.0033 14.0622C5.46421 14.1816 5.95174 14.1447 6.38937 13.9571C6.82701 13.7695 7.18996 13.4419 7.42126 13.0257M7.42126 10.9375C7.5932 11.247 7.69159 11.6024 7.69159 11.9816C7.69159 12.3608 7.5932 12.7172 7.42126 13.0257M7.42126 10.9375L16.5591 5.86137M7.42126 13.0257L16.5591 18.1019M16.5591 5.86137C16.6931 6.11369 16.876 6.33676 17.0972 6.51755C17.3184 6.69835 17.5734 6.83323 17.8474 6.91431C18.1213 6.9954 18.4086 7.02106 18.6926 6.98979C18.9766 6.95853 19.2515 6.87097 19.5012 6.73223C19.7509 6.59349 19.9705 6.40636 20.147 6.18177C20.3236 5.95719 20.4536 5.69965 20.5295 5.42423C20.6054 5.14881 20.6256 4.86103 20.5889 4.57771C20.5523 4.29439 20.4595 4.02122 20.3161 3.77416C20.0334 3.28731 19.571 2.93081 19.0282 2.7813C18.4855 2.63178 17.9057 2.70118 17.4136 2.97458C16.9215 3.24798 16.5563 3.70356 16.3965 4.24337C16.2367 4.78319 16.2951 5.36415 16.5591 5.86137ZM16.5591 18.1019C16.422 18.3487 16.3348 18.6201 16.3026 18.9006C16.2704 19.1811 16.2937 19.4652 16.3713 19.7366C16.4489 20.0081 16.5792 20.2616 16.7547 20.4828C16.9303 20.7039 17.1477 20.8883 17.3945 21.0254C17.6413 21.1625 17.9127 21.2496 18.1932 21.2819C18.4737 21.3141 18.7578 21.2908 19.0292 21.2132C19.3007 21.1356 19.5543 21.0053 19.7754 20.8298C19.9965 20.6542 20.1809 20.4368 20.318 20.19C20.5949 19.6916 20.6625 19.1035 20.5058 18.5553C20.3491 18.007 19.9811 17.5434 19.4826 17.2665C18.9842 16.9896 18.3961 16.922 17.8479 17.0787C17.2996 17.2354 16.836 17.6034 16.5591 18.1019Z" stroke="black" stroke-width="1.3" stroke-linecap="round" stroke-linejoin="round"/>
</svg>
