<svg width="53" height="52" viewBox="0 0 53 52" fill="none" xmlns="http://www.w3.org/2000/svg">
<rect x="0.5" width="52" height="52" rx="26" fill="black"/>
<path d="M26.6166 18.9228C27.649 18.9228 28.9431 18.234 29.7138 17.3156C30.4117 16.4833 30.9206 15.321 30.9206 14.1587C30.9206 14.0009 30.9061 13.843 30.877 13.7139C29.7283 13.7569 28.3469 14.4744 27.5181 15.4358C26.8638 16.1677 26.2676 17.3156 26.2676 18.4923C26.2676 18.6645 26.2967 18.8367 26.3112 18.8941C26.3839 18.9084 26.5002 18.9228 26.6166 18.9228ZM22.9814 36.2859C24.3918 36.2859 25.0171 35.3531 26.7765 35.3531C28.565 35.3531 28.9576 36.2572 30.528 36.2572C32.0694 36.2572 33.1018 34.8509 34.076 33.4733C35.1666 31.8949 35.6173 30.3451 35.6464 30.2734C35.5446 30.2447 32.5928 29.0536 32.5928 25.7102C32.5928 22.8115 34.9194 21.5057 35.0502 21.4053C33.5089 19.2241 31.1678 19.1667 30.528 19.1667C28.7977 19.1667 27.3872 20.1999 26.5002 20.1999C25.5405 20.1999 24.2755 19.2241 22.7778 19.2241C19.9278 19.2241 17.0342 21.5488 17.0342 25.9398C17.0342 28.6662 18.1102 31.5505 19.4334 33.4159C20.5676 34.9944 21.5564 36.2859 22.9814 36.2859Z" fill="white"/>
</svg>
