<svg width="24" height="24" viewBox="0 0 24 24" fill="none" xmlns="http://www.w3.org/2000/svg">
<path fill-rule="evenodd" clip-rule="evenodd" d="M4.5 5.25537V13.0363C4.5 13.0448 4.49993 13.0532 4.49979 13.0617L4.49998 17.4592L6.40685 15.8947C6.75312 15.6106 7.18716 15.4554 7.63505 15.4554H19.4997V5.25537H4.5ZM7.35828 17.0544C7.43631 16.9904 7.53412 16.9554 7.63505 16.9554H20.5633C20.8043 16.9554 20.9997 16.76 20.9997 16.519V4.19173C20.9997 3.95073 20.8043 3.75537 20.5633 3.75537H3.43636C3.19536 3.75537 3 3.95074 3 4.19173V13.0363L3.00008 19.7076C3.0001 20.076 3.42841 20.2786 3.71321 20.045L7.35828 17.0544Z" fill="black"/>
</svg>
