<svg width="24" height="24" viewBox="0 0 24 24" fill="none" xmlns="http://www.w3.org/2000/svg">
<path fill-rule="evenodd" clip-rule="evenodd" d="M20.4 12C20.4 16.6392 16.6392 20.4 12 20.4C7.36081 20.4 3.60001 16.6392 3.60001 12C3.60001 7.36078 7.36081 3.59998 12 3.59998C16.6392 3.59998 20.4 7.36078 20.4 12ZM21.9 12C21.9 17.4676 17.4676 21.9 12 21.9C6.53239 21.9 2.10001 17.4676 2.10001 12C2.10001 6.53236 6.53239 2.09998 12 2.09998C17.4676 2.09998 21.9 6.53236 21.9 12ZM10.1828 9.44473C10.1828 8.84175 10.4106 8.43839 10.7211 8.17451C11.0477 7.89684 11.5099 7.73914 12.0009 7.73914C12.492 7.73914 12.9541 7.89684 13.2808 8.17451C13.5913 8.43839 13.819 8.84175 13.819 9.44473C13.819 9.88874 13.7129 10.152 13.5799 10.3518C13.4361 10.5679 13.2475 10.7376 12.9655 10.9914L12.9655 10.9914L12.8996 11.0507C12.6024 11.3186 12.2297 11.6653 11.9463 12.1668C11.6556 12.6813 11.4845 13.3086 11.4845 14.1217V14.8717H12.9845V14.1217C12.9845 13.5315 13.1052 13.165 13.2522 12.9048C13.4065 12.6317 13.6175 12.4231 13.9039 12.1648C13.93 12.1413 13.9572 12.117 13.9854 12.0918C14.242 11.8625 14.5735 11.5662 14.8286 11.183C15.1334 10.7251 15.319 10.17 15.319 9.44473C15.319 8.41065 14.9048 7.58621 14.2522 7.03156C13.6159 6.4907 12.7939 6.23914 12.0009 6.23914C11.2079 6.23914 10.386 6.4907 9.74962 7.03156C9.09705 7.58621 8.6828 8.41065 8.6828 9.44473V9.49335H10.1828V9.44473ZM11.4828 17.9249V15.8959H12.9828V17.9249H11.4828Z" fill="black"/>
</svg>
