<svg width="24" height="24" viewBox="0 0 24 24" fill="none" xmlns="http://www.w3.org/2000/svg">
<g clip-path="url(#clip0_10_4480)">
<path d="M11.1667 14.5H12.8334V16.1667H11.1667V14.5ZM11.1667 7.83329H12.8334V12.8333H11.1667V7.83329ZM11.9917 3.66663C7.39169 3.66663 3.66669 7.39996 3.66669 12C3.66669 16.6 7.39169 20.3333 11.9917 20.3333C16.6 20.3333 20.3334 16.6 20.3334 12C20.3334 7.39996 16.6 3.66663 11.9917 3.66663ZM12 18.6667C8.31669 18.6667 5.33335 15.6833 5.33335 12C5.33335 8.31662 8.31669 5.33329 12 5.33329C15.6834 5.33329 18.6667 8.31662 18.6667 12C18.6667 15.6833 15.6834 18.6667 12 18.6667Z" fill="black"/>
</g>
<defs>
<clipPath id="clip0_10_4480">
<rect width="18" height="18" fill="white" transform="translate(3 3)"/>
</clipPath>
</defs>
</svg>
