<svg width="24" height="24" viewBox="0 0 24 24" fill="none" xmlns="http://www.w3.org/2000/svg">
<path d="M19.3125 21H4.6875C3.75375 21 3 20.2463 3 19.3125V5.8125C3 4.87875 3.75375 4.125 4.6875 4.125H19.3125C20.2463 4.125 21 4.87875 21 5.8125V19.3125C21 20.2463 20.2463 21 19.3125 21ZM4.6875 5.25C4.3725 5.25 4.125 5.4975 4.125 5.8125V19.3125C4.125 19.6275 4.3725 19.875 4.6875 19.875H19.3125C19.6275 19.875 19.875 19.6275 19.875 19.3125V5.8125C19.875 5.4975 19.6275 5.25 19.3125 5.25H4.6875Z" fill="black"/>
<path d="M8.0625 7.5C7.7475 7.5 7.5 7.2525 7.5 6.9375V3.5625C7.5 3.2475 7.7475 3 8.0625 3C8.3775 3 8.625 3.2475 8.625 3.5625V6.9375C8.625 7.2525 8.3775 7.5 8.0625 7.5ZM15.9375 7.5C15.6225 7.5 15.375 7.2525 15.375 6.9375V3.5625C15.375 3.2475 15.6225 3 15.9375 3C16.2525 3 16.5 3.2475 16.5 3.5625V6.9375C16.5 7.2525 16.2525 7.5 15.9375 7.5ZM20.4375 9.75H3.5625C3.2475 9.75 3 9.5025 3 9.1875C3 8.8725 3.2475 8.625 3.5625 8.625H20.4375C20.7525 8.625 21 8.8725 21 9.1875C21 9.5025 20.7525 9.75 20.4375 9.75Z" fill="black"/>
</svg>
