<svg width="24" height="24" viewBox="0 0 24 24" fill="none" xmlns="http://www.w3.org/2000/svg">
<g clip-path="url(#clip0_10_4479)">
<path d="M10.3821 14.6604H13.3985C13.3985 13.6075 13.819 12.9307 15.1536 11.859C16.3419 10.9189 17 9.80964 17 8.41833C17 5.86134 15.2084 4 12.0457 4C9.0841 4 7 6.03055 7 8.73796H10.181C10.181 7.77908 10.8391 6.89542 12.064 6.89542C13.2157 6.89542 13.8739 7.47826 13.8739 8.41833C13.8739 9.3208 13.2888 9.88484 12.2102 10.7309C10.8757 11.765 10.3821 12.7991 10.3821 14.6604ZM11.9909 20C13.106 20 13.9287 19.1727 13.9287 18.0259C13.9287 16.879 13.106 16.0329 11.9909 16.0329C10.8757 16.0329 10.053 16.879 10.053 18.0259C10.053 19.1727 10.8757 20 11.9909 20Z" fill="black"/>
</g>
<defs>
<clipPath id="clip0_10_4479">
<rect width="10" height="16" fill="white" transform="translate(7 4)"/>
</clipPath>
</defs>
</svg>
