<svg width="24" height="24" viewBox="0 0 24 24" fill="none" xmlns="http://www.w3.org/2000/svg">
<path fill-rule="evenodd" clip-rule="evenodd" d="M6.07115 17.3487L4.0918 19.0126V5.69995H19.909V16.8129H7.54101C7.00339 16.8129 6.48293 17.0025 6.07127 17.3486L6.07115 17.3487ZM3.88036 21.1499L7.03648 18.4968C7.17777 18.378 7.35643 18.3129 7.54101 18.3129H20.625C20.833 18.3129 21.0323 18.2302 21.1794 18.0832C21.3265 17.9362 21.409 17.7368 21.409 17.5288V4.984C21.409 4.77606 21.3265 4.57663 21.1794 4.4296C21.0323 4.28256 20.833 4.19995 20.625 4.19995H3.37585C3.16791 4.19995 2.96848 4.28256 2.82144 4.4296C2.6744 4.57663 2.5918 4.77606 2.5918 4.984V20.5498C2.5918 20.6991 2.63442 20.8453 2.71469 20.9712C2.79494 21.0971 2.90947 21.1975 3.04482 21.2606C3.18016 21.3235 3.3307 21.3466 3.47872 21.327C3.62673 21.3075 3.76608 21.246 3.88036 21.1499ZM8.01563 12.4031C8.56792 12.4031 9.01563 11.9554 9.01563 11.4032C9.01563 10.8509 8.56792 10.4031 8.01563 10.4031C7.46335 10.4031 7.01562 10.8509 7.01562 11.4032C7.01562 11.9554 7.46335 12.4031 8.01563 12.4031ZM12 12.4031C12.5523 12.4031 13 11.9554 13 11.4032C13 10.8509 12.5523 10.4031 12 10.4031C11.4477 10.4031 11 10.8509 11 11.4032C11 11.9554 11.4477 12.4031 12 12.4031ZM16.9844 11.4032C16.9844 11.9554 16.5367 12.4031 15.9844 12.4031C15.4321 12.4031 14.9844 11.9554 14.9844 11.4032C14.9844 10.8509 15.4321 10.4031 15.9844 10.4031C16.5367 10.4031 16.9844 10.8509 16.9844 11.4032Z" fill="black"/>
</svg>
