<svg width="24" height="24" viewBox="0 0 24 24" fill="none" xmlns="http://www.w3.org/2000/svg">
<path d="M16.2857 3.77332C14.5157 3.77332 12.966 4.53446 12 5.82103C11.034 4.53446 9.48428 3.77332 7.71428 3.77332C6.30533 3.7749 4.95455 4.33531 3.95827 5.33159C2.96199 6.32787 2.40159 7.67865 2.4 9.0876C2.4 15.0876 11.2963 19.9442 11.6751 20.1447C11.775 20.1985 11.8866 20.2266 12 20.2266C12.1134 20.2266 12.225 20.1985 12.3249 20.1447C12.7037 19.9442 21.6 15.0876 21.6 9.0876C21.5984 7.67865 21.038 6.32787 20.0417 5.33159C19.0454 4.33531 17.6947 3.7749 16.2857 3.77332ZM12 18.7562C10.4349 17.8442 3.77143 13.6896 3.77143 9.0876C3.77279 8.04231 4.18863 7.04022 4.92777 6.30108C5.6669 5.56195 6.66899 5.1461 7.71428 5.14474C9.38143 5.14474 10.7811 6.03274 11.3657 7.45903C11.4174 7.5848 11.5053 7.69237 11.6182 7.76807C11.7311 7.84378 11.864 7.8842 12 7.8842C12.136 7.8842 12.2689 7.84378 12.3818 7.76807C12.4947 7.69237 12.5826 7.5848 12.6343 7.45903C13.2189 6.03017 14.6186 5.14474 16.2857 5.14474C17.331 5.1461 18.3331 5.56195 19.0722 6.30108C19.8114 7.04022 20.2272 8.04231 20.2286 9.0876C20.2286 13.6827 13.5634 17.8433 12 18.7562Z" fill="black"/>
</svg>
