<svg width="24" height="24" viewBox="0 0 24 24" fill="none" xmlns="http://www.w3.org/2000/svg">
<path fill-rule="evenodd" clip-rule="evenodd" d="M2.625 12C2.625 6.82233 6.82233 2.625 12 2.625C17.1777 2.625 21.375 6.82233 21.375 12C21.375 17.1777 17.1777 21.375 12 21.375C6.82233 21.375 2.625 17.1777 2.625 12ZM12 3.875C7.51269 3.875 3.875 7.51269 3.875 12C3.875 16.4873 7.51269 20.125 12 20.125C16.4873 20.125 20.125 16.4873 20.125 12C20.125 7.51269 16.4873 3.875 12 3.875Z" fill="black"/>
<path fill-rule="evenodd" clip-rule="evenodd" d="M11.625 6.5C11.9702 6.5 12.25 6.77982 12.25 7.125V12.0746L15.7654 14.887C16.035 15.1026 16.0787 15.4959 15.863 15.7654C15.6474 16.035 15.2541 16.0787 14.9846 15.863L11.2346 12.863C11.0863 12.7444 11 12.5649 11 12.375V7.125C11 6.77982 11.2798 6.5 11.625 6.5Z" fill="black"/>
</svg>
